<?xml version="1.0" encoding="utf-8"?>
<!-- Generator: Adobe Illustrator 23.0.1, SVG Export Plug-In . SVG Version: 6.00 Build 0)  -->
<svg version="1.1" id="Layer_1" xmlns="http://www.w3.org/2000/svg" xmlns:xlink="http://www.w3.org/1999/xlink" x="0px" y="0px"
	 viewBox="0 0 971.4 489.5" style="enable-background:new 0 0 971.4 489.5;" xml:space="preserve">
<style type="text/css">
	.st0{fill:none;stroke:#000000;stroke-width:1.000000e-02;}
	.st1{fill:none;stroke:#000000;stroke-miterlimit:10;}
	.st2{font-family:'SignPainter-HouseScript';}
	.st3{font-size:82.3395px;}
	.st4{fill:none;stroke:#000000;stroke-width:1.000000e-02;stroke-linecap:round;stroke-linejoin:round;stroke-miterlimit:10;}
</style>
<g transform="translate(22.5000185, 22.5000185) ">
	<polygon class="st0" points="-4.5,-4.5 50.8,-4.5 50.8,4 106.1,4 106.1,-4.5 145.7,-4.5 145.7,4 185.4,4 185.4,-4.5 225.1,-4.5 
		225.1,4 280.4,4 280.4,-4.5 335.7,-4.5 335.7,35.2 327.2,35.2 327.2,74.9 335.7,74.9 335.7,114.6 327.2,114.6 327.2,154.2 
		335.7,154.2 335.7,193.9 280.4,193.9 280.4,185.4 225.1,185.4 225.1,193.9 185.4,193.9 185.4,185.4 145.7,185.4 145.7,193.9 
		106.1,193.9 106.1,185.4 50.8,185.4 50.8,193.9 -4.5,193.9 -4.5,154.2 4,154.2 4,114.6 -4.5,114.6 -4.5,74.9 4,74.9 4,35.2 
		-4.5,35.2 	"/>
</g>
<g transform="translate(447.69721849999996, 22.5000185) ">
	<polygon class="st0" points="-89.5,-4.5 -34.3,-4.5 -34.3,4 21,4 21,-4.5 60.7,-4.5 60.7,4 100.4,4 100.4,-4.5 140.1,-4.5 140.1,4 
		195.3,4 195.3,-4.5 250.6,-4.5 250.6,35.2 242.1,35.2 242.1,74.9 250.6,74.9 250.6,114.6 242.1,114.6 242.1,154.2 250.6,154.2 
		250.6,193.9 195.3,193.9 195.3,185.4 140.1,185.4 140.1,193.9 100.4,193.9 100.4,185.4 60.7,185.4 60.7,193.9 21,193.9 21,185.4 
		-34.3,185.4 -34.3,193.9 -89.5,193.9 -89.5,154.2 -81,154.2 -81,114.6 -89.5,114.6 -89.5,74.9 -81,74.9 -81,35.2 -89.5,35.2 	"/>
</g>
<g transform="translate(872.8944184999999, 22.5000185) ">
	<polygon class="st0" points="-166.1,-4.5 -120.7,-4.5 -120.7,4 -66.9,4 -66.9,-4.5 -27.2,-4.5 -27.2,4 26.7,4 26.7,-4.5 72,-4.5 
		72,35.2 80.5,35.2 80.5,74.9 72,74.9 72,114.6 80.5,114.6 80.5,154.2 72,154.2 72,193.9 26.7,193.9 26.7,185.4 -27.2,185.4 
		-27.2,193.9 -66.9,193.9 -66.9,185.4 -120.7,185.4 -120.7,193.9 -166.1,193.9 -166.1,154.2 -174.6,154.2 -174.6,114.6 
		-166.1,114.6 -166.1,74.9 -174.6,74.9 -174.6,35.2 -166.1,35.2 	"/>
</g>
<g transform="translate(872.8944184999999, 270.53171849999995) ">
	<polygon class="st0" points="-166.1,-54.1 -120.7,-54.1 -120.7,-45.6 -66.9,-45.6 -66.9,-54.1 -27.2,-54.1 -27.2,-45.6 26.7,-45.6 
		26.7,-54.1 72,-54.1 72,-14.4 80.5,-14.4 80.5,25.3 72,25.3 72,64.9 80.5,64.9 80.5,104.6 72,104.6 72,144.3 26.7,144.3 
		26.7,135.8 -27.2,135.8 -27.2,144.3 -66.9,144.3 -66.9,135.8 -120.7,135.8 -120.7,144.3 -166.1,144.3 -166.1,104.6 -174.6,104.6 
		-174.6,64.9 -166.1,64.9 -166.1,25.3 -174.6,25.3 -174.6,-14.4 -166.1,-14.4 	"/>
</g>
<g transform="translate(22.5000185, 270.53171849999995) ">
	<polygon class="st0" points="4,-45.6 50.8,-45.6 50.8,-54.1 106.1,-54.1 106.1,-45.6 145.7,-45.6 145.7,-54.1 185.4,-54.1 
		185.4,-45.6 225.1,-45.6 225.1,-54.1 280.4,-54.1 280.4,-45.6 327.2,-45.6 327.2,-0.2 335.7,-0.2 335.7,53.6 327.2,53.6 
		327.2,93.3 335.7,93.3 335.7,147.2 327.2,147.2 327.2,192.5 280.4,192.5 280.4,201 225.1,201 225.1,192.5 185.4,192.5 185.4,201 
		145.7,201 145.7,192.5 106.1,192.5 106.1,201 50.8,201 50.8,192.5 4,192.5 4,147.2 -4.5,147.2 -4.5,93.3 4,93.3 4,53.6 -4.5,53.6 
		-4.5,-0.2 4,-0.2 	"/>
</g>
<g transform="translate(447.69721849999996, 270.53171849999995) ">
	<polygon class="st0" points="-81,-45.6 -34.3,-45.6 -34.3,-54.1 21,-54.1 21,-45.6 60.7,-45.6 60.7,-54.1 100.4,-54.1 100.4,-45.6 
		140.1,-45.6 140.1,-54.1 195.3,-54.1 195.3,-45.6 242.1,-45.6 242.1,-0.2 250.6,-0.2 250.6,53.6 242.1,53.6 242.1,93.3 250.6,93.3 
		250.6,147.2 242.1,147.2 242.1,192.5 195.3,192.5 195.3,201 140.1,201 140.1,192.5 100.4,192.5 100.4,201 60.7,201 60.7,192.5 
		21,192.5 21,201 -34.3,201 -34.3,192.5 -81,192.5 -81,147.2 -89.5,147.2 -89.5,93.3 -81,93.3 -81,53.6 -89.5,53.6 -89.5,-0.2 
		-81,-0.2 	"/>
</g>
<text transform="matrix(6.123234e-17 1 -1 6.123234e-17 185.1025 256.1846)" class="st1 st2 st3">LapTea</text>
<g id="LWPOLYLINE_4_">
	<rect x="883.9" y="358.7" class="st4" width="31.5" height="27.6"/>
</g>
<circle class="st4" cx="104.3" cy="347.5" r="12.8"/>
</svg>
