<?xml version="1.0" encoding="utf-8"?>
<!-- Generator: Adobe Illustrator 22.0.1, SVG Export Plug-In . SVG Version: 6.00 Build 0)  -->
<svg version="1.1" xmlns="http://www.w3.org/2000/svg" xmlns:xlink="http://www.w3.org/1999/xlink" x="0px" y="0px"
	 viewBox="0 0 2834.6 1984.3" style="enable-background:new 0 0 2834.6 1984.3;" xml:space="preserve">
<style type="text/css">
	.st0{fill:none;stroke:#000000;stroke-width:1.000000e-02;stroke-linecap:round;stroke-linejoin:round;stroke-miterlimit:10;}
	.st1{fill:none;stroke:#000000;stroke-width:3.879266e-02;stroke-miterlimit:10;}
	.st2{font-family:'SignPainter-HouseScript';}
	.st3{font-size:46.5512px;}
</style>
<g id="Layer_1">
</g>
<g id="_x30_">
	<g id="LWPOLYLINE">
		<polygon class="st0" points="347.7,444.1 347.7,452.6 316.5,452.6 316.5,444.1 285.4,444.1 285.4,452.6 254.3,452.6 254.3,444.1 
			231.6,444.1 231.6,415.8 223.1,415.8 223.1,378.9 231.6,378.9 231.6,342.1 223.1,342.1 223.1,305.2 231.6,305.2 231.6,276.9 
			254.3,276.9 254.3,268.4 285.4,268.4 285.4,276.9 316.5,276.9 316.5,268.4 347.7,268.4 347.7,276.9 370.4,276.9 370.4,305.2 
			378.9,305.2 378.9,342.1 370.4,342.1 370.4,378.9 378.9,378.9 378.9,415.8 370.4,415.8 370.4,444.1 		"/>
	</g>
	<g id="LWPOLYLINE_3_">
		<polygon class="st0" points="756.1,206.8 764.6,206.8 764.6,259.2 727.8,259.2 727.8,250.7 690.9,250.7 690.9,259.2 654.1,259.2 
			654.1,250.7 617.2,250.7 617.2,259.2 580.4,259.2 580.4,206.8 588.9,206.8 588.9,154.3 580.4,154.3 580.4,123.2 588.9,123.2 
			588.9,70.7 580.4,70.7 580.4,18.3 617.2,18.3 617.2,26.8 654.1,26.8 654.1,18.3 690.9,18.3 690.9,26.8 727.8,26.8 727.8,18.3 
			764.6,18.3 764.6,70.7 756.1,70.7 756.1,123.2 764.6,123.2 764.6,154.3 756.1,154.3 		"/>
	</g>
	<g id="LWPOLYLINE_2_">
		<rect x="155.7" y="76.8" class="st0" width="28.3" height="28.3"/>
	</g>
	<g id="LWPOLYLINE_1_">
		<polygon class="st0" points="64.6,206.8 56.1,206.8 56.1,154.3 64.6,154.3 64.6,123.2 56.1,123.2 56.1,70.7 64.6,70.7 64.6,18.3 
			87.3,18.3 87.3,26.8 118.5,26.8 118.5,18.3 149.6,18.3 149.6,26.8 180.7,26.8 180.7,18.3 203.4,18.3 203.4,70.7 211.9,70.7 
			211.9,123.2 203.4,123.2 203.4,154.3 211.9,154.3 211.9,206.8 203.4,206.8 203.4,259.2 180.7,259.2 180.7,250.7 149.6,250.7 
			149.6,259.2 118.5,259.2 118.5,250.7 87.3,250.7 87.3,259.2 64.6,259.2 		"/>
	</g>
	<g id="LWPOLYLINE_5_">
		<polygon class="st0" points="180.7,444.4 180.7,452.9 149.5,452.9 149.5,444.4 118.3,444.4 118.3,452.9 87.2,452.9 87.2,444.4 
			64.5,444.4 64.6,416.1 56.1,416.1 56.1,379.2 64.6,379.2 64.6,342.4 56.1,342.4 56.1,305.5 64.6,305.5 64.6,277.2 87.3,277.2 
			87.3,268.7 118.4,268.7 118.4,277.2 149.6,277.2 149.6,268.7 180.8,268.7 180.8,277.2 203.5,277.2 203.4,305.5 211.9,305.5 
			211.9,342.4 203.4,342.4 203.4,379.2 211.9,379.2 211.9,416.1 203.4,416.1 203.4,444.4 		"/>
	</g>
	<g id="LWPOLYLINE_4_">
		<rect x="84.3" y="377.4" class="st0" width="27.6" height="31.5"/>
	</g>
	<g id="LWPOLYLINE_7_">
		<rect x="317.7" y="76.8" class="st0" width="28.3" height="28.3"/>
	</g>
	<g id="LWPOLYLINE_6_">
		<polygon class="st0" points="226.6,206.8 218.1,206.8 218.1,154.3 226.6,154.3 226.6,123.2 218.1,123.2 218.1,70.7 226.6,70.7 
			226.6,18.3 249.3,18.3 249.3,26.8 280.5,26.8 280.5,18.3 311.6,18.3 311.6,26.8 342.7,26.8 342.7,18.3 365.4,18.3 365.4,70.7 
			373.9,70.7 373.9,123.2 365.4,123.2 365.4,154.3 373.9,154.3 373.9,206.8 365.4,206.8 365.4,259.2 342.7,259.2 342.7,250.7 
			311.6,250.7 311.6,259.2 280.5,259.2 280.5,250.7 249.3,250.7 249.3,259.2 226.6,259.2 		"/>
	</g>
	<g id="LWPOLYLINE_8_">
		<polygon class="st0" points="555.1,206.8 563.6,206.8 563.6,259.2 526.8,259.2 526.8,250.7 489.9,250.7 489.9,259.2 453.1,259.2 
			453.1,250.7 416.2,250.7 416.2,259.2 379.4,259.2 379.4,206.8 387.9,206.8 387.9,154.3 379.4,154.3 379.4,123.2 387.9,123.2 
			387.9,70.7 379.4,70.7 379.4,18.3 416.2,18.3 416.2,26.8 453.1,26.8 453.1,18.3 489.9,18.3 489.9,26.8 526.8,26.8 526.8,18.3 
			563.6,18.3 563.6,70.7 555.1,70.7 555.1,123.2 563.6,123.2 563.6,154.3 555.1,154.3 		"/>
	</g>
</g>
<g id="LapTeaTitle">
	<text transform="matrix(1 0 0 1 623.1953 139.2363)" class="st1 st2 st3">LapTea</text>
</g>
<g id="Isolation_Mode">
</g>
</svg>
